<?xml version="1.0" encoding="utf-8"?>
<!-- Generator: Adobe Illustrator 26.2.1, SVG Export Plug-In . SVG Version: 6.00 Build 0)  -->
<svg version="1.1" id="Layer_1" xmlns="http://www.w3.org/2000/svg" xmlns:xlink="http://www.w3.org/1999/xlink" x="0px" y="0px"
	 viewBox="0 0 100 50" style="enable-background:new 0 0 100 50;" xml:space="preserve">
<style type="text/css">
	.st0{fill:#F7AAB3;}
	.st1{fill:none;}
	.st2{enable-background:new    ;}
	.st3{fill:#010101;}
	.st4{fill:#A5DEF3;}
</style>
<g>
	<g>
		<path class="st0" d="M83.02,8.16c-0.95-0.76-2.14-1.04-3.26-0.86c-0.07-1.13-0.6-2.23-1.56-2.99c-1.79-1.43-4.41-1.14-5.85,0.65
			c-1.32,1.65-1.18,4.01,0.26,5.49l-8,10.01c-1.76-1.08-4.09-0.7-5.41,0.96c-1.43,1.79-1.14,4.41,0.65,5.85
			c0.96,0.76,2.14,1.04,3.26,0.86c0.07,1.13,0.6,2.23,1.56,2.99c1.79,1.43,4.41,1.14,5.85-0.65c1.32-1.65,1.18-4.01-0.26-5.49
			l8-10.01c1.76,1.08,4.09,0.7,5.41-0.96C85.11,12.21,84.81,9.6,83.02,8.16z"/>
		<rect x="6.19" y="12.77" class="st1" width="75.98" height="42.39"/>
		<g class="st2">
			<path class="st3" d="M9.85,17.2c0,0.07-0.06,0.1-0.18,0.1c-0.44,0-1.12-0.04-2.02-0.12c-0.9-0.08-1.58-0.12-2.03-0.12
				c-0.57,0-0.9,0.02-0.99,0.06c-0.22,0.1-0.33,0.38-0.33,0.85c0,0.56,0.14,0.88,0.43,0.96c0.12,0.03,0.3,0.04,0.54,0.04
				c0.41,0,1.02-0.02,1.83-0.07c0.81-0.04,1.42-0.07,1.83-0.07c0.2,0,0.29,0.52,0.29,1.56c0,0.9-0.03,1.43-0.1,1.58
				c-0.04,0.11-0.12,0.16-0.24,0.16c0.08,0-0.11-0.02-0.56-0.06C7.7,22.03,6.74,22,5.46,22c-0.41,0-0.65,0-0.7,0.01
				c-0.3,0.05-0.45,0.17-0.45,0.38c0,0.84,0.04,1.81,0.11,2.9c0.06,0.99,0.09,1.43,0.09,1.32c0,0.15-0.19,0.24-0.56,0.27
				c0.1-0.01-0.16-0.01-0.79-0.01c-1.11,0-1.82-0.04-2.14-0.12c-0.17-0.04-0.26-0.13-0.26-0.28c0-0.66,0.02-1.64,0.07-2.96
				c0.04-1.32,0.07-2.3,0.07-2.96c0-0.78-0.04-1.76-0.11-2.95c-0.11-1.83-0.16-2.81-0.17-2.95L0.6,14.56
				c-0.01-0.15,0.08-0.22,0.27-0.22c0.44,0,1.1,0.01,1.98,0.03c0.88,0.02,1.55,0.03,1.99,0.03c0.47,0,1.18-0.04,2.13-0.11
				c0.95-0.07,1.66-0.11,2.13-0.11c0.3,0,0.46,0.12,0.5,0.36c0,0.25,0.01,0.64,0.04,1.14c0.01,0.13,0.05,0.38,0.12,0.75
				C9.82,16.77,9.85,17.02,9.85,17.2z"/>
			<path class="st3" d="M21.49,22.4c0,1.51-0.18,2.54-0.54,3.09c-0.66,1.01-2.32,1.51-4.96,1.51c-1.19,0-2.11-0.09-2.76-0.28
				c-1.03-0.3-1.7-0.86-2-1.69c-0.15-0.41-0.23-1.14-0.23-2.18c0-0.24,0.01-0.6,0.03-1.08c0.02-0.48,0.03-0.84,0.03-1.07
				c0-0.69-0.03-1.71-0.1-3.09c-0.07-1.37-0.1-2.4-0.1-3.08c0-0.14,0.06-0.21,0.19-0.21c0.36,0,0.91,0.01,1.64,0.04
				c0.73,0.03,1.28,0.04,1.64,0.04c0.15,0,0.22,0.07,0.22,0.2c0,0.78-0.03,1.95-0.08,3.51c-0.05,1.56-0.08,2.73-0.08,3.51
				c0,0.93,0.1,1.56,0.29,1.88c0.26,0.44,0.8,0.67,1.63,0.67c1.21,0,1.82-0.59,1.82-1.77c0-0.86-0.02-2.14-0.06-3.86
				c-0.04-1.71-0.06-3-0.06-3.86c0-0.18,0.07-0.28,0.22-0.28c0.35,0,0.88-0.01,1.58-0.04c0.7-0.03,1.23-0.04,1.58-0.04
				c0.17,0,0.26,0.07,0.26,0.21c0,0.68-0.03,1.71-0.08,3.08c-0.06,1.37-0.08,2.4-0.08,3.09c0,0.19,0,0.47,0.01,0.86
				C21.48,21.92,21.49,22.21,21.49,22.4z"/>
			<path class="st3" d="M33.81,26.66c0,0.04-0.06,0.07-0.18,0.09c-0.22,0.04-0.79,0.05-1.69,0.05c-0.77,0-1.3-0.02-1.58-0.05
				c-0.13-0.02-0.2-0.03-0.22-0.04c-0.04-0.02-0.08-0.08-0.12-0.18c-0.09-0.23-0.22-0.57-0.39-1.03c-0.23-0.59-0.59-1.46-1.08-2.62
				c-0.11-0.23-0.35-0.36-0.74-0.38c0.18,0.01-0.13,0.02-0.91,0.02c-0.09,0-0.13,0.15-0.13,0.45c0,0.4,0.04,1,0.11,1.8
				c0.07,0.8,0.11,1.4,0.11,1.8c0,0.1-0.03,0.16-0.08,0.18c-0.08,0.01-0.17,0.01-0.25,0.02c-0.35,0.02-0.89,0.04-1.63,0.04
				c-0.85,0-1.35-0.02-1.53-0.05c-0.17-0.04-0.26-0.13-0.26-0.28c0-0.65,0.03-1.63,0.09-2.95c0.06-1.31,0.09-2.3,0.09-2.95
				c0-2.5-0.06-4.45-0.17-5.85l-0.01-0.12c-0.01-0.1,0.09-0.17,0.28-0.2c0.19-0.04,1.1-0.07,2.71-0.11
				c1.09-0.02,1.97-0.04,2.62-0.04c1.35,0,2.45,0.3,3.3,0.91c0.96,0.69,1.45,1.68,1.45,2.97c0,0.86-0.12,1.55-0.37,2.07
				c-0.25,0.51-0.71,1.01-1.37,1.5c-0.14,0.09-0.2,0.18-0.2,0.27c0-0.01,0.36,0.74,1.08,2.23C33.45,25.69,33.81,26.51,33.81,26.66z
				 M30.08,18.7c0-0.72-0.24-1.22-0.71-1.5c-0.37-0.21-0.94-0.32-1.72-0.32c-0.56,0-0.86,0.09-0.9,0.26
				c-0.04,0.2-0.05,0.78-0.05,1.74c0,0.14,0,0.34,0.01,0.6c0.01,0.27,0.01,0.46,0.01,0.59c0,0.03,0.09,0.06,0.28,0.09
				c0.36,0.05,0.74,0.08,1.14,0.08C29.43,20.25,30.08,19.73,30.08,18.7z"/>
			<path class="st3" d="M45.38,26.66c0,0.04-0.06,0.07-0.18,0.09c-0.22,0.04-0.79,0.05-1.69,0.05c-0.77,0-1.3-0.02-1.58-0.05
				c-0.13-0.02-0.2-0.03-0.22-0.04c-0.04-0.02-0.08-0.08-0.12-0.18c-0.09-0.23-0.22-0.57-0.39-1.03c-0.23-0.59-0.59-1.46-1.08-2.62
				c-0.11-0.23-0.35-0.36-0.74-0.38c0.18,0.01-0.13,0.02-0.91,0.02c-0.09,0-0.13,0.15-0.13,0.45c0,0.4,0.04,1,0.11,1.8
				c0.07,0.8,0.11,1.4,0.11,1.8c0,0.1-0.03,0.16-0.08,0.18c-0.08,0.01-0.17,0.01-0.25,0.02c-0.35,0.02-0.89,0.04-1.63,0.04
				c-0.85,0-1.35-0.02-1.53-0.05c-0.17-0.04-0.26-0.13-0.26-0.28c0-0.65,0.03-1.63,0.09-2.95c0.06-1.31,0.09-2.3,0.09-2.95
				c0-2.5-0.06-4.45-0.17-5.85l-0.01-0.12c-0.01-0.1,0.09-0.17,0.28-0.2c0.19-0.04,1.1-0.07,2.71-0.11
				c1.09-0.02,1.97-0.04,2.62-0.04c1.35,0,2.45,0.3,3.3,0.91c0.96,0.69,1.45,1.68,1.45,2.97c0,0.86-0.12,1.55-0.37,2.07
				c-0.25,0.51-0.71,1.01-1.37,1.5c-0.14,0.09-0.2,0.18-0.2,0.27c0-0.01,0.36,0.74,1.08,2.23C45.02,25.69,45.38,26.51,45.38,26.66z
				 M41.66,18.7c0-0.72-0.24-1.22-0.71-1.5c-0.37-0.21-0.94-0.32-1.72-0.32c-0.56,0-0.86,0.09-0.9,0.26
				c-0.04,0.2-0.05,0.78-0.05,1.74c0,0.14,0,0.34,0.01,0.6c0.01,0.27,0.01,0.46,0.01,0.59c0,0.03,0.09,0.06,0.28,0.09
				c0.36,0.05,0.74,0.08,1.14,0.08C41.01,20.25,41.66,19.73,41.66,18.7z"/>
			<path class="st3" d="M56.56,17.53c0,0.25-0.05,0.48-0.14,0.67c-0.77,1.53-1.83,3.14-3.17,4.83c-0.19,0.25-0.28,0.47-0.28,0.67
				c0,0.31,0.02,0.78,0.05,1.41c0.04,0.63,0.05,1.09,0.05,1.4c0,0.11-0.02,0.17-0.07,0.2c-0.01,0.01-0.09,0.02-0.24,0.04
				c-0.21,0.04-0.75,0.05-1.6,0.05c-0.86,0-1.4-0.02-1.64-0.05c-0.17-0.02-0.25-0.11-0.25-0.26c0-0.31,0.03-0.79,0.08-1.43
				c0.05-0.64,0.08-1.12,0.08-1.44c0-0.19-0.07-0.39-0.21-0.61c-0.72-1.01-1.74-2.56-3.07-4.65c-0.14-0.23-0.2-0.42-0.2-0.57
				c0-0.35-0.02-0.89-0.05-1.6c-0.04-0.71-0.05-1.24-0.05-1.6c0-0.2,0.06-0.29,0.18-0.29c0.36,0,0.91,0.01,1.64,0.04
				c0.73,0.03,1.28,0.04,1.65,0.04c0.14,0,0.2,0.04,0.2,0.13c0,0.3-0.01,0.76-0.04,1.36c-0.03,0.61-0.04,1.06-0.04,1.36
				c0,0.18,0.26,0.62,0.78,1.33c0.41,0.56,0.75,0.98,1.02,1.29c0.24-0.28,0.56-0.71,0.97-1.28c0.51-0.71,0.76-1.14,0.76-1.29
				c0-0.3-0.02-0.74-0.07-1.34c-0.04-0.6-0.07-1.05-0.07-1.34c0-0.12,0.03-0.2,0.08-0.21h0.22c0.35,0,0.89-0.02,1.6-0.05
				c0.71-0.03,1.25-0.05,1.61-0.05c0.12,0,0.18,0.13,0.18,0.38c0,0.31,0.01,0.79,0.02,1.41C56.56,16.73,56.56,17.21,56.56,17.53z"/>
		</g>
		<g class="st2">
			<path class="st3" d="M9.85,39c0,0.07-0.06,0.1-0.18,0.1c-0.44,0-1.12-0.04-2.02-0.12c-0.9-0.08-1.58-0.12-2.03-0.12
				c-0.57,0-0.9,0.02-0.99,0.06c-0.22,0.1-0.33,0.38-0.33,0.85c0,0.56,0.14,0.88,0.43,0.96c0.12,0.03,0.3,0.04,0.54,0.04
				c0.41,0,1.02-0.02,1.83-0.07c0.81-0.04,1.42-0.07,1.83-0.07c0.2,0,0.29,0.52,0.29,1.56c0,0.9-0.03,1.43-0.1,1.58
				c-0.04,0.11-0.12,0.16-0.24,0.16c0.08,0-0.11-0.02-0.56-0.06C7.7,43.83,6.74,43.8,5.46,43.8c-0.41,0-0.65,0-0.7,0.01
				c-0.3,0.05-0.45,0.17-0.45,0.38c0,0.84,0.04,1.81,0.11,2.9c0.06,0.99,0.09,1.43,0.09,1.32c0,0.15-0.19,0.24-0.56,0.27
				c0.1-0.01-0.16-0.01-0.79-0.01c-1.11,0-1.82-0.04-2.14-0.12c-0.17-0.04-0.26-0.13-0.26-0.28c0-0.66,0.02-1.64,0.07-2.96
				c0.04-1.32,0.07-2.3,0.07-2.96c0-0.78-0.04-1.76-0.11-2.95c-0.11-1.83-0.16-2.81-0.17-2.95L0.6,36.36
				c-0.01-0.15,0.08-0.22,0.27-0.22c0.44,0,1.1,0.01,1.98,0.03c0.88,0.02,1.55,0.03,1.99,0.03c0.47,0,1.18-0.04,2.13-0.11
				c0.95-0.07,1.66-0.11,2.13-0.11c0.3,0,0.46,0.12,0.5,0.36c0,0.25,0.01,0.64,0.04,1.14c0.01,0.13,0.05,0.38,0.12,0.75
				C9.82,38.57,9.85,38.82,9.85,39z"/>
			<path class="st3" d="M21.47,48.46c0,0.04-0.06,0.07-0.18,0.09c-0.22,0.04-0.79,0.05-1.69,0.05c-0.77,0-1.3-0.02-1.58-0.05
				c-0.13-0.02-0.2-0.03-0.22-0.04c-0.04-0.02-0.08-0.08-0.12-0.18c-0.09-0.23-0.22-0.57-0.39-1.03c-0.23-0.59-0.59-1.46-1.08-2.62
				c-0.11-0.23-0.35-0.36-0.74-0.38c0.18,0.01-0.13,0.02-0.91,0.02c-0.09,0-0.13,0.15-0.13,0.45c0,0.4,0.04,1,0.11,1.8
				c0.07,0.8,0.11,1.4,0.11,1.8c0,0.1-0.03,0.16-0.08,0.18c-0.08,0.01-0.17,0.01-0.25,0.02c-0.35,0.02-0.89,0.04-1.63,0.04
				c-0.85,0-1.35-0.02-1.53-0.05c-0.17-0.04-0.26-0.13-0.26-0.28c0-0.65,0.03-1.63,0.09-2.95c0.06-1.31,0.09-2.3,0.09-2.95
				c0-2.5-0.06-4.45-0.17-5.85L10.9,36.4c-0.01-0.1,0.09-0.17,0.28-0.2c0.19-0.04,1.1-0.07,2.71-0.11c1.09-0.02,1.97-0.04,2.62-0.04
				c1.35,0,2.45,0.3,3.3,0.91c0.96,0.69,1.45,1.68,1.45,2.97c0,0.86-0.12,1.55-0.37,2.07c-0.25,0.51-0.71,1.01-1.37,1.5
				c-0.14,0.09-0.2,0.18-0.2,0.27c0-0.01,0.36,0.74,1.08,2.23C21.11,47.49,21.47,48.31,21.47,48.46z M17.74,40.51
				c0-0.72-0.24-1.22-0.71-1.5c-0.37-0.21-0.94-0.32-1.72-0.32c-0.56,0-0.86,0.09-0.9,0.26c-0.04,0.2-0.05,0.78-0.05,1.74
				c0,0.14,0,0.34,0.01,0.6c0.01,0.27,0.01,0.46,0.01,0.59c0,0.03,0.09,0.06,0.28,0.09c0.36,0.05,0.74,0.08,1.14,0.08
				C17.1,42.05,17.74,41.54,17.74,40.51z"/>
			<path class="st3" d="M26.07,42c0,0.7,0.02,1.75,0.05,3.15c0.04,1.4,0.05,2.45,0.05,3.15c0,0.12-0.03,0.19-0.08,0.22
				c-0.01,0.01-0.09,0.02-0.23,0.04c-0.38,0.05-0.9,0.07-1.54,0.07c-0.86,0-1.41-0.02-1.65-0.07c-0.17-0.04-0.26-0.13-0.26-0.28
				c0,0.09,0.03-0.43,0.08-1.56c0.11-2.4,0.16-3.97,0.16-4.72c0-0.63-0.02-1.58-0.06-2.85c-0.04-1.27-0.06-2.21-0.06-2.85
				c0-0.13,0.07-0.2,0.2-0.2c0.18,0,0.46,0.01,0.83,0.03c0.37,0.02,0.65,0.03,0.83,0.03c0.18,0,0.45-0.01,0.81-0.03
				c0.36-0.02,0.63-0.03,0.81-0.03c0.17,0,0.26,0.07,0.26,0.2c0,0.63-0.03,1.58-0.1,2.85C26.11,40.41,26.07,41.36,26.07,42z"/>
			<path class="st3" d="M36.97,45.79c0,0.25-0.05,0.72-0.15,1.4c-0.11,0.74-0.2,1.18-0.28,1.32c-0.07,0.11-0.17,0.17-0.29,0.17
				c-0.05,0-0.14-0.01-0.27-0.03c-0.43-0.06-1.69-0.09-3.78-0.09c-0.46,0-1.13,0-2.03-0.01c-0.9-0.01-1.57-0.01-2.02-0.01
				c-0.2,0-0.29-0.09-0.29-0.26c0-0.66,0.04-1.66,0.11-2.99c0.07-1.33,0.11-2.32,0.11-2.99c0-0.67-0.04-1.93-0.11-3.77
				c-0.02-0.47-0.05-1.18-0.1-2.12l-0.01-0.12c-0.01-0.14,0.06-0.2,0.22-0.2c0.44,0,1.1,0.01,1.97,0.04
				c0.88,0.02,1.54,0.04,1.97,0.04c0.43,0,1.08-0.01,1.95-0.04c0.87-0.02,1.52-0.04,1.95-0.04c0.31,0,0.48,0.12,0.53,0.35
				c0.03,0.14,0.08,0.55,0.14,1.24c0.06,0.69,0.09,1.11,0.09,1.26c0,0.12-0.06,0.19-0.18,0.19c-0.04,0-0.1,0-0.19-0.01
				c-1.57-0.13-2.99-0.2-4.24-0.2c-0.31,0-0.51,0.07-0.58,0.22c-0.03,0.07-0.04,0.3-0.04,0.68c0,0.4,0.06,0.67,0.18,0.8
				c0.1,0.11,0.29,0.17,0.58,0.17c0.06,0,0.17,0,0.35-0.01c0.17-0.01,0.31-0.01,0.43-0.01c0.75,0,1.5-0.02,2.26-0.06
				c0.07-0.01,0.23-0.02,0.49-0.04c0.2-0.02,0.36-0.04,0.48-0.04c0.14,0,0.21,0.07,0.21,0.2c0-0.12-0.05,0.33-0.16,1.36
				c-0.05,0.47-0.07,0.95-0.07,1.42c0,0.12-0.09,0.18-0.26,0.18l-0.8-0.09c-0.34-0.04-1.11-0.05-2.31-0.05H31.9
				c-0.24,0-0.38,0.06-0.43,0.18c-0.01,0.03-0.01,0.21-0.01,0.55c0,0.45,0.03,0.74,0.09,0.87c0.1,0.22,0.48,0.36,1.14,0.4
				c-0.01,0,0.42,0,1.3,0c0.31,0,0.78-0.03,1.4-0.08c0.62-0.06,1.08-0.08,1.39-0.08C36.9,45.47,36.97,45.58,36.97,45.79z"/>
			<path class="st3" d="M50.02,36.38c0,0.67-0.03,1.69-0.08,3.04c-0.06,1.35-0.08,2.37-0.08,3.05v5.85c0,0.16-0.09,0.24-0.26,0.24
				c-0.14,0-0.36,0.01-0.64,0.02c-0.29,0.01-0.5,0.02-0.64,0.02c-0.15,0-0.38-0.01-0.69-0.04c-0.31-0.02-0.54-0.04-0.69-0.04
				c-0.11,0-0.23-0.1-0.38-0.29c-0.43-0.57-1.38-1.85-2.87-3.81c-0.41-0.55-1.03-1.36-1.86-2.43c-0.02-0.04-0.07-0.07-0.13-0.11
				c-0.05,0.04-0.07,0.11-0.07,0.2c0,0.69,0.02,1.72,0.06,3.09c0.04,1.37,0.06,2.4,0.06,3.09c0,0.21-0.08,0.31-0.24,0.31H38.4
				c-0.17,0-0.26-0.09-0.26-0.28c0-0.64,0.03-1.6,0.09-2.89c0.06-1.29,0.09-2.26,0.09-2.9c0-0.68-0.03-1.7-0.08-3.05
				c-0.06-1.35-0.08-2.37-0.08-3.04c0-0.13,0.12-0.2,0.35-0.2c0.34,0,0.77-0.02,1.27-0.07c0.12-0.01,0.35-0.05,0.7-0.12
				c0.3-0.05,0.53-0.08,0.7-0.08c0.07,0,0.18,0.1,0.33,0.3l3.31,4.53c0.3,0.41,0.74,1.01,1.34,1.79c0.15,0.18,0.28,0.28,0.38,0.28
				c0.08,0,0.12-0.23,0.12-0.69c0-0.62-0.03-1.56-0.1-2.8c-0.07-1.25-0.1-2.19-0.1-2.81c0-0.22,0.06-0.33,0.19-0.33
				c0.35,0,0.89-0.01,1.61-0.04c0.72-0.03,1.25-0.04,1.61-0.04C49.96,36.11,50.02,36.2,50.02,36.38z"/>
			<path class="st3" d="M63.24,42.26c0,1.74-0.56,3.25-1.68,4.52c-0.99,1.14-2.37,1.74-4.16,1.8c-0.34,0.01-1.29,0.02-2.83,0.02
				c-0.29,0-0.73-0.01-1.31-0.03c-0.58-0.02-1.02-0.03-1.31-0.03c-0.17,0-0.26-0.07-0.26-0.2c0-0.65,0.03-1.63,0.08-2.93
				c0.05-1.3,0.08-2.28,0.08-2.93c0-0.68-0.03-1.7-0.08-3.06c-0.05-1.36-0.08-2.37-0.08-3.05c0-0.12,0.09-0.2,0.26-0.22
				c0.42-0.05,1.11-0.07,2.07-0.07c1.82,0,3,0.03,3.54,0.08c1.4,0.14,2.5,0.5,3.29,1.06c0.75,0.53,1.33,1.28,1.77,2.24
				C63.04,40.37,63.24,41.3,63.24,42.26z M59.84,42.26c0-1-0.3-1.82-0.9-2.45c-0.6-0.66-1.4-0.98-2.4-0.98
				c-0.91,0-1.37,0.12-1.37,0.36c0,0.35-0.01,0.87-0.02,1.57c-0.01,0.7-0.02,1.23-0.02,1.57c0,0.34,0.01,0.86,0.02,1.55
				c0.01,0.69,0.02,1.21,0.02,1.56c0,0.25,0.47,0.38,1.42,0.38c1.02,0,1.83-0.34,2.41-1.02C59.57,44.16,59.84,43.32,59.84,42.26z"/>
			<path class="st3" d="M70.67,44.47c0,1.2-0.51,2.23-1.52,3.09c-0.89,0.76-1.97,1.24-3.24,1.45c-0.05,0.01-0.09,0.01-0.12,0.01
				c-0.14,0-0.44-0.42-0.9-1.25c-0.47-0.83-0.7-1.34-0.7-1.52c0-0.06,0.04-0.11,0.13-0.12c0.86-0.2,1.43-0.36,1.7-0.5
				c0.62-0.31,0.92-0.76,0.92-1.37c0-0.38-0.2-0.81-0.6-1.29c-0.7-0.8-1.08-1.25-1.14-1.34c-0.41-0.62-0.61-1.3-0.61-2.04
				c0-1.08,0.5-1.98,1.5-2.7c0.82-0.59,1.82-0.98,3.01-1.15c0.06-0.01,0.12-0.01,0.15-0.01c0.09,0,0.16,0.07,0.21,0.21
				c0.15,0.43,0.51,1.21,1.07,2.34c0.02,0.04,0.03,0.07,0.03,0.09c0,0.1-0.05,0.15-0.16,0.15c-0.05,0-0.13-0.01-0.24-0.03
				c-0.11-0.02-0.2-0.03-0.26-0.03c-0.43,0-0.8,0.1-1.12,0.29c-0.38,0.22-0.58,0.54-0.58,0.94c0,0.36,0.21,0.8,0.64,1.33
				c0.75,0.95,1.14,1.44,1.18,1.49C70.46,43.18,70.67,43.83,70.67,44.47z"/>
		</g>
		<path class="st4" d="M99.1,23.35c-0.7-0.97-1.75-1.55-2.85-1.67c0.23-1.08,0.03-2.26-0.67-3.23c-1.31-1.83-3.86-2.25-5.68-0.93
			c-1.68,1.21-2.17,3.47-1.21,5.24l-10.2,7.32c-1.38-1.48-3.67-1.74-5.36-0.53c-1.83,1.31-2.25,3.86-0.93,5.68
			c0.7,0.97,1.75,1.55,2.85,1.67c-0.23,1.08-0.03,2.26,0.67,3.23c1.31,1.83,3.86,2.25,5.68,0.93c1.68-1.21,2.17-3.47,1.21-5.24
			l10.2-7.32c1.38,1.48,3.67,1.74,5.36,0.53C100,27.72,100.41,25.18,99.1,23.35z"/>
	</g>
</g>
</svg>
